<svg width="11" height="13" viewBox="0 0 11 13" fill="none" xmlns="http://www.w3.org/2000/svg">
<path d="M5.5 12.6923C5.42628 12.6923 5.35266 12.6731 5.28677 12.6347C5.07089 12.5087 0 9.50453 0 5.5C0 2.46717 2.46717 0 5.5 0C8.53283 0 11 2.46717 11 5.5C11 9.50453 5.92911 12.5087 5.71323 12.6347C5.64734 12.6731 5.57372 12.6923 5.5 12.6923ZM5.5 0.846154C2.93383 0.846154 0.846154 2.93383 0.846154 5.5C0.846154 8.58857 4.56066 11.1684 5.5 11.7712C6.43934 11.1684 10.1538 8.58857 10.1538 5.5C10.1538 2.93383 8.06617 0.846154 5.5 0.846154ZM5.5 8.03846C4.10025 8.03846 2.96154 6.89975 2.96154 5.5C2.96154 4.10025 4.10025 2.96154 5.5 2.96154C6.89975 2.96154 8.03846 4.10025 8.03846 5.5C8.03846 6.89975 6.89975 8.03846 5.5 8.03846ZM5.5 3.80769C4.5669 3.80769 3.80769 4.5669 3.80769 5.5C3.80769 6.4331 4.5669 7.19231 5.5 7.19231C6.4331 7.19231 7.19231 6.4331 7.19231 5.5C7.19231 4.5669 6.4331 3.80769 5.5 3.80769Z" fill="black"/>
</svg>
