<svg width="48" height="48" viewBox="0 0 48 48" fill="none" xmlns="http://www.w3.org/2000/svg">
<path d="M45.3823 2.61778C43.6943 0.929719 41.4498 9.375e-05 39.0624 0.0001875L8.93756 0C4.00931 0.0001875 0 4.00959 0 8.93747V39.0624C0 43.9906 4.0095 48 8.93756 48H39.0624C43.9906 48 48 43.9906 48 39.0624V8.93766C48 6.55031 47.0704 4.30584 45.3823 2.61778ZM15.5498 20.3901C16.0989 19.841 16.9893 19.841 17.5386 20.3901L22.5938 25.4452L22.5936 10.4437C22.5936 9.66703 23.2232 9.03741 23.9998 9.03741C24.7765 9.03741 25.4061 9.66703 25.4061 10.4437L25.4062 25.4449L30.4611 20.3899C31.0102 19.8408 31.9006 19.8408 32.4498 20.3899C32.999 20.939 32.999 21.8294 32.4499 22.3786L24.9943 29.8343C24.7305 30.0982 24.3728 30.2463 23.9999 30.2463C23.6271 30.2463 23.2693 30.0982 23.0057 29.8343L15.55 22.3788C15.0007 21.8297 15.0007 20.9393 15.5498 20.3901ZM37.5564 38.9625H10.4438C9.66722 38.9625 9.0375 38.3329 9.0375 37.5563C9.0375 36.7796 9.66722 36.15 10.4438 36.15H37.5563C38.3329 36.15 38.9626 36.7796 38.9626 37.5563C38.9627 38.3329 38.333 38.9625 37.5564 38.9625Z" fill="white"/>
</svg>
