<svg width="14" height="13" viewBox="0 0 14 13" fill="none" xmlns="http://www.w3.org/2000/svg">
<path d="M9.94644 6.65674H8.04411C7.52347 6.65674 7.1001 7.08011 7.1001 7.60075V9.05968C7.1001 9.58032 7.52347 10.0037 8.04411 10.0037H9.94644C10.4671 10.0037 10.8905 9.58032 10.8905 9.05968V7.60075C10.8905 7.08011 10.4671 6.65674 9.94644 6.65674ZM10.2039 9.05968C10.2039 9.20271 10.0866 9.31714 9.94644 9.31714H8.04411C7.90108 9.31714 7.78665 9.19985 7.78665 9.05968V7.60075C7.78665 7.45772 7.90394 7.34329 8.04411 7.34329H9.94644C10.0895 7.34329 10.2039 7.46058 10.2039 7.60075V9.05968Z" fill="black"/>
<path d="M14 4.0049C14 3.94483 13.9857 3.88762 13.9542 3.83613L11.8717 0.174499C11.8116 0.0686556 11.6972 0 11.5742 0H2.42297C2.29996 0 2.18553 0.0657949 2.12546 0.174499L0.0457703 3.83613C0.0171639 3.88762 0 3.94483 0 4.0049C0 4.82591 0.494892 5.52963 1.20147 5.84144V11.8803C1.20147 12.0691 1.35595 12.2235 1.54475 12.2235H3.44136C3.44422 12.2235 3.44708 12.2235 3.44994 12.2235H6.11034C6.1132 12.2235 6.11606 12.2235 6.11892 12.2235H12.4524C12.6412 12.2235 12.7957 12.0691 12.7957 11.8803V5.88435C12.7957 5.87005 12.7957 5.8586 12.7928 5.84716C13.5022 5.53535 14 4.82877 14 4.0049ZM2.62321 0.689416H11.3739L13.0016 3.55292H0.998365L2.62321 0.689416ZM9.96363 4.23662C9.85492 4.85452 9.31426 5.32366 8.6649 5.32366C8.01553 5.32366 7.47487 4.85452 7.36616 4.23662H9.96363ZM6.6367 4.23662C6.52799 4.85452 5.98733 5.32366 5.33797 5.32366C4.6886 5.32366 4.14794 4.85452 4.03637 4.23662H6.6367ZM0.70944 4.23662H3.30977C3.20106 4.85452 2.65754 5.32366 2.00817 5.32366C1.35881 5.32652 0.818145 4.85452 0.70944 4.23662ZM5.76706 11.537H3.79322V7.83245C3.79322 7.56355 4.01063 7.34328 4.28239 7.34328H5.28075C5.54965 7.34328 5.76992 7.56069 5.76992 7.83245V11.537H5.76706ZM12.1091 11.537H6.45362V7.83245C6.45362 7.18594 5.92726 6.65672 5.27789 6.65672H4.27953C3.63302 6.65672 3.1038 7.18308 3.1038 7.83245V11.5398H1.88803V6.01022C1.92808 6.01308 1.96812 6.01308 2.00817 6.01308C2.70045 6.01308 3.31263 5.66122 3.67307 5.12628C4.03351 5.66122 4.64569 6.01308 5.33797 6.01308C6.03024 6.01308 6.63956 5.66122 7.00286 5.12628C7.3633 5.66122 7.97548 6.01308 8.6649 6.01308C9.35717 6.01308 9.96649 5.66122 10.3269 5.12628C10.6874 5.66122 11.2996 6.01308 11.9918 6.01308C12.0319 6.01308 12.0691 6.01022 12.1091 6.01022V11.537ZM11.9918 5.32652C11.3425 5.32652 10.8018 4.85738 10.6931 4.23948H13.2934C13.1819 4.85452 12.6412 5.32652 11.9918 5.32652Z" fill="black"/>
</svg>
