<svg width="13" height="13" viewBox="0 0 13 13" fill="none" xmlns="http://www.w3.org/2000/svg">
<path d="M10.2646 8.05304C9.9985 7.77593 9.67749 7.62777 9.33726 7.62777C8.99978 7.62777 8.67602 7.77318 8.3989 8.0503L7.53188 8.91458C7.46054 8.87617 7.38921 8.8405 7.32061 8.80483C7.22184 8.75544 7.12855 8.7088 7.04898 8.65941C6.23684 8.14359 5.49877 7.47137 4.79089 6.60161C4.44792 6.1681 4.21744 5.80318 4.05008 5.43277C4.27506 5.22699 4.48359 5.01298 4.68662 4.8072C4.76345 4.73038 4.84027 4.65081 4.9171 4.57398C5.49328 3.9978 5.49328 3.2515 4.9171 2.67531L4.16806 1.92627C4.083 1.84122 3.9952 1.75342 3.91289 1.66562C3.74826 1.49551 3.57541 1.31991 3.39707 1.15528C3.13092 0.891884 2.81265 0.751953 2.47791 0.751953C2.14318 0.751953 1.81941 0.891884 1.54504 1.15528C1.5423 1.15803 1.5423 1.15803 1.53955 1.16077L0.606682 2.10187C0.255483 2.45307 0.0551899 2.8811 0.0112901 3.37771C-0.0545597 4.17888 0.181402 4.92518 0.362489 5.41357C0.806975 6.61258 1.47096 7.7238 2.46145 8.91458C3.66321 10.3496 5.10916 11.4827 6.76089 12.2811C7.39195 12.5802 8.23428 12.9342 9.17538 12.9945C9.233 12.9973 9.29336 13 9.34824 13C9.98204 13 10.5143 12.7723 10.9314 12.3196C10.9341 12.3141 10.9396 12.3113 10.9424 12.3058C11.085 12.133 11.2497 11.9766 11.4225 11.8092C11.5405 11.6967 11.6612 11.5788 11.7792 11.4553C12.0508 11.1727 12.1935 10.8434 12.1935 10.5059C12.1935 10.1657 12.0481 9.83922 11.771 9.56485L10.2646 8.05304ZM11.2469 10.9422C11.2442 10.9422 11.2442 10.9449 11.2469 10.9422C11.1399 11.0574 11.0302 11.1617 10.9122 11.2769C10.7338 11.4471 10.5527 11.6254 10.3826 11.8257C10.1055 12.122 9.77901 12.2619 9.35098 12.2619C9.30983 12.2619 9.26593 12.2619 9.22477 12.2592C8.40988 12.2071 7.65261 11.8888 7.08465 11.6172C5.5317 10.8654 4.16806 9.79806 3.03489 8.4454C2.09928 7.31772 1.4737 6.2751 1.0594 5.15566C0.804231 4.47246 0.710944 3.94018 0.7521 3.43807C0.779537 3.11706 0.903006 2.85091 1.13074 2.62318L2.06635 1.68757C2.20079 1.56136 2.34347 1.49276 2.4834 1.49276C2.65626 1.49276 2.79619 1.59702 2.88399 1.68482C2.88673 1.68757 2.88947 1.69031 2.89222 1.69306C3.05959 1.84945 3.21872 2.01133 3.38609 2.18419C3.47115 2.27199 3.55895 2.35978 3.64675 2.45033L4.39579 3.19937C4.68662 3.49021 4.68662 3.75909 4.39579 4.04993C4.31622 4.1295 4.23939 4.20906 4.15983 4.28589C3.92935 4.52185 3.70985 4.74135 3.47115 4.95536C3.46566 4.96085 3.46017 4.96359 3.45743 4.96908C3.22147 5.20504 3.26537 5.43552 3.31475 5.59191C3.3175 5.60014 3.32024 5.60837 3.32298 5.6166C3.51779 6.08853 3.79216 6.53301 4.20921 7.06255L4.21196 7.0653C4.96923 7.99817 5.76766 8.72526 6.6484 9.28224C6.76089 9.35358 6.87613 9.4112 6.98588 9.46607C7.08465 9.51546 7.17794 9.5621 7.25751 9.61149C7.26848 9.61698 7.27946 9.62521 7.29043 9.6307C7.38372 9.67734 7.47152 9.69929 7.56206 9.69929C7.78979 9.69929 7.93247 9.55661 7.97911 9.50997L8.91747 8.57161C9.01076 8.47832 9.15892 8.36583 9.33178 8.36583C9.50189 8.36583 9.64182 8.47284 9.72687 8.56612C9.72962 8.56887 9.72962 8.56887 9.73236 8.57161L11.2442 10.0834C11.5268 10.3633 11.5268 10.6514 11.2469 10.9422Z" fill="black"/>
<path d="M7.01632 3.09234C7.73518 3.21306 8.38819 3.55329 8.9095 4.0746C9.43081 4.59591 9.76829 5.24892 9.89176 5.96778C9.92194 6.14886 10.0783 6.27508 10.2567 6.27508C10.2786 6.27508 10.2978 6.27233 10.3198 6.26959C10.5228 6.23666 10.6573 6.0446 10.6243 5.84157C10.4762 4.9718 10.0646 4.17886 9.4363 3.55054C8.80798 2.92223 8.01504 2.51066 7.14527 2.3625C6.94224 2.32958 6.75292 2.46402 6.71725 2.66431C6.68158 2.86461 6.81328 3.05941 7.01632 3.09234Z" fill="black"/>
<path d="M12.9756 5.73458C12.7314 4.30234 12.0564 2.99907 11.0193 1.96193C9.98215 0.9248 8.67887 0.24984 7.24664 0.00564702C7.04635 -0.0300216 6.85703 0.107165 6.82136 0.307458C6.78844 0.510495 6.92288 0.699813 7.12592 0.735482C8.4045 0.952237 9.57059 1.5586 10.498 2.48324C11.4254 3.41063 12.029 4.57672 12.2457 5.8553C12.2759 6.03639 12.4323 6.1626 12.6107 6.1626C12.6326 6.1626 12.6518 6.15986 12.6738 6.15711C12.8741 6.12693 13.0112 5.93487 12.9756 5.73458Z" fill="black"/>
</svg>
