<svg width="36" height="37" viewBox="0 0 36 37" fill="none" xmlns="http://www.w3.org/2000/svg">
<path d="M18 0.604004C8.05901 0.604004 0 8.70273 0 18.693C0 28.6833 8.05901 36.782 18 36.782C27.941 36.782 36 28.6833 36 18.693C36 8.70273 27.941 0.604004 18 0.604004ZM24.2213 19.6519L15.2212 25.3047C15.0391 25.419 14.8321 25.4764 14.625 25.4764C14.4374 25.4764 14.2495 25.4295 14.0795 25.3345C13.7219 25.1353 13.5 24.7571 13.5 24.3458V13.0402C13.5 12.629 13.7219 12.2508 14.0795 12.0515C14.4371 11.8511 14.8744 11.8633 15.2212 12.0813L24.2213 17.7342C24.55 17.9412 24.75 18.3033 24.75 18.693C24.75 19.0827 24.55 19.4449 24.2213 19.6519Z" fill="white"/>
</svg>
