<svg width="51" height="45" fill="none" xmlns="http://www.w3.org/2000/svg"><path d="M19.154 18.087a3.491 3.491 0 1 0 0-6.982 3.491 3.491 0 0 0 0 6.982Z" fill="#545759"/><path d="M47.813 27.446a10.752 10.752 0 0 0-6.013-2.86V6.836c0-1.89-.776-3.588-1.989-4.849C38.551.728 36.853 0 34.962 0H6.837C4.947 0 3.25.776 1.988 1.988.728 3.248 0 4.946 0 6.838V35.786c0 1.89.776 3.588 1.988 4.849 1.26 1.26 2.958 1.988 4.85 1.988H34.04C35.835 44.079 38.066 45 40.539 45c2.86 0 5.43-1.164 7.273-3.007a10.258 10.258 0 0 0 3.007-7.273c0-2.861-1.164-5.431-3.007-7.274ZM2.57 6.837c0-1.164.485-2.23 1.26-2.958a4.255 4.255 0 0 1 3.007-1.26h28.125c1.164 0 2.23.484 3.007 1.26a4.255 4.255 0 0 1 1.26 3.007v15.13l-7.176-7.178a1.302 1.302 0 0 0-1.843 0L19.397 25.7l-7.323-7.37a1.302 1.302 0 0 0-1.842 0L2.57 26.088V6.838Zm4.219 33.314v-.097a4.255 4.255 0 0 1-3.007-1.26c-.727-.777-1.212-1.844-1.212-3.007v-6.013l8.583-8.632 7.322 7.322c.485.485 1.31.485 1.843 0L31.13 17.602l7.08 7.129-.436.145a4.515 4.515 0 0 0-.63.194c-.195.049-.389.145-.583.194a1.45 1.45 0 0 0-.387.194c-.194.097-.34.145-.485.242l-.728.437c-.145.097-.242.145-.388.242-.097.049-.145.097-.242.146a5.85 5.85 0 0 0-1.164 1.018 10.258 10.258 0 0 0-3.006 7.274c0 .727.097 1.406.242 2.133.049.194.097.34.146.534.145.485.29.97.485 1.455v.048c.193.388.387.824.63 1.164H6.789Zm39.132 0c-1.406 1.406-3.297 2.23-5.43 2.23a7.65 7.65 0 0 1-5.286-2.133c-.194-.194-.388-.437-.582-.63-.146-.146-.291-.34-.437-.486-.194-.242-.339-.533-.484-.824-.097-.194-.194-.34-.291-.533a4.096 4.096 0 0 1-.243-.825c-.048-.194-.145-.436-.194-.63a8.032 8.032 0 0 1-.145-1.552c0-2.133.873-4.024 2.23-5.43 1.358-1.407 3.298-2.231 5.431-2.231 2.134 0 4.025.873 5.431 2.23 1.407 1.407 2.23 3.298 2.23 5.431 0 2.085-.872 3.977-2.23 5.383Z" fill="#545759"/><path d="M41.412 29.531a1.693 1.693 0 0 0-.436-.29c-.146-.05-.291-.098-.437-.098h-.097c-.145 0-.29.049-.436.097a1.145 1.145 0 0 0-.437.291l-3.006 3.007c-.485.485-.485 1.309 0 1.842.485.485 1.31.485 1.843 0l.775-.776v5.335c0 .727.582 1.309 1.31 1.309.727 0 1.309-.582 1.309-1.31v-5.334l.776.776c.485.485 1.31.485 1.843 0 .484-.485.484-1.309 0-1.842l-3.007-3.007Z" fill="#545759"/></svg>