<svg width="29" height="19" viewBox="0 0 29 19" fill="none" xmlns="http://www.w3.org/2000/svg">
<path d="M26.731 0.000976562H2.16402C0.96883 0.000976562 0 0.969806 0 2.165V16.7682C0 17.9633 0.96883 18.9322 2.16402 18.9322H26.731C27.9261 18.9322 28.895 17.9634 28.895 16.7682V2.165C28.895 0.969806 27.9262 0.000976562 26.731 0.000976562Z" fill="#41479B"/>
<path d="M28.865 1.80633C28.6945 0.78152 27.8042 0 26.731 0H26.1679L16.9385 6.0469V5.64046e-05H11.9566V6.04696L2.72708 5.64046e-05H2.16402C1.09079 5.64046e-05 0.200516 0.78152 0.0299673 1.80639L7.91842 6.97476H0V11.9567H7.91842L0.0299673 17.1249C0.200516 18.1497 1.09079 18.9313 2.16402 18.9313H2.72708L11.9566 12.8844V18.9313H16.9385V12.8844L26.1679 18.9313H26.731C27.8042 18.9313 28.6945 18.1498 28.865 17.1249L20.9766 11.9566H28.895V6.97465H20.9766L28.865 1.80633Z" fill="#F5F5F5"/>
<path d="M15.9421 0.000976562H12.9529V7.97199H0V10.9612H12.9529V18.9322H15.9421V10.9612H28.895V7.97199H15.9421V0.000976562Z" fill="#FF4B55"/>
<path d="M1.39915 18.7917L11.9291 11.9566H10.099L0.520508 18.1742C0.754885 18.4478 1.05608 18.6621 1.39915 18.7917Z" fill="#FF4B55"/>
<path d="M19.5486 11.9566H17.7185L27.9173 18.5768C28.2027 18.3894 28.4409 18.1362 28.6107 17.8389L19.5486 11.9566Z" fill="#FF4B55"/>
<path d="M0.228516 1.19639L9.1301 6.97466H10.9602L0.873349 0.427002C0.602514 0.62859 0.380892 0.892144 0.228516 1.19639Z" fill="#FF4B55"/>
<path d="M18.7686 6.97466L28.3646 0.745581C28.1276 0.472941 27.8241 0.25984 27.4786 0.13269L16.9385 6.97466H18.7686Z" fill="#FF4B55"/>
</svg>
